<?xml version="1.0" encoding="UTF-8"?><svg id="Layer_1" xmlns="http://www.w3.org/2000/svg" viewBox="0 0 361 77.36"><defs><style>.cls-1{fill:#009444;}.cls-2{fill:#d7df23;}.cls-3{fill:#8dc63f;}.cls-4{fill:#fff200;}.cls-5{fill:#006838;}.cls-6{fill:#231f20;}</style></defs><polygon class="cls-4" points="95.05 14.28 101.09 58.51 65.8 85.85 24.48 68.96 18.45 24.72 53.73 -2.61 95.05 14.28"/><polygon class="cls-2" points="173.53 30.85 147.44 67.06 103.02 62.58 84.7 21.87 110.8 -14.35 155.21 -9.86 173.53 30.85"/><polygon class="cls-3" points="211.21 87.9 168.13 99.58 136.47 68.11 147.9 24.95 190.98 13.27 222.64 44.75 211.21 87.9"/><polygon class="cls-5" points="314.41 68.57 288.32 104.79 243.91 100.3 225.59 59.6 251.68 23.38 296.09 27.87 314.41 68.57"/><polygon class="cls-1" points="270 33.49 234.71 60.83 193.39 43.93 187.36 -.3 222.65 -27.63 263.97 -10.74 270 33.49"/><g><path class="cls-6" d="m55.61,19.84c0,8.48-5.92,14.4-14.4,14.4h-15.07V5.43h15.07c8.48,0,14.4,5.92,14.4,14.4Zm-9.02,0c0-3.17-2.21-5.41-5.39-5.41h-6.08v10.83h6.08c3.17,0,5.39-2.24,5.39-5.41Z"/><path class="cls-6" d="m67.12,14.42v2.72h12.62v5.39h-12.62v2.72h19.82v8.99h-28.81V5.43h28.81v8.99h-19.82Z"/><path class="cls-6" d="m123.41,19.84l13.12,14.4h-12.24l-9.18-11.12v11.12h-8.99V5.43h8.99v11.12l9.18-11.12h12.24l-13.12,14.4Z"/><path class="cls-6" d="m147.12,14.42v2.72h12.62v5.39h-12.62v2.72h19.82v8.99h-28.81V5.43h28.81v8.99h-19.82Z"/><path class="cls-6" d="m184.53,34.91c-8.48,0-14.4-5.92-14.4-14.4V5.43h8.99v15.07c0,3.17,2.24,5.39,5.41,5.39s5.41-2.21,5.41-5.39V5.43h8.99v15.07c0,8.48-5.92,14.4-14.4,14.4Z"/><path class="cls-6" d="m219.41,19.84l13.12,14.4h-12.24l-9.18-11.12v11.12h-8.99V5.43h8.99v11.12l9.18-11.12h12.24l-13.12,14.4Z"/><path class="cls-6" d="m243.12,14.42v2.72h12.62v5.39h-12.62v2.72h19.82v8.99h-28.81V5.43h28.81v8.99h-19.82Z"/><path class="cls-6" d="m294.93,5.43v28.81h-8.99l-10.83-14.4v14.4h-8.99V5.43h8.99l10.83,14.4V5.43h8.99Z"/><path class="cls-6" d="m56.54,43.83l-10.59,28.81h-9.92l-11.5-28.81h9.74l6.53,16.88,6-16.88h9.74Z"/><path class="cls-6" d="m77.23,68.21h-9.39l-1.52,4.43h-9.79l11.1-28.81h9.9l11.02,28.81h-9.79l-1.52-4.43Zm-1.81-5.33l-2.85-8.32-2.88,8.32h5.73Z"/><path class="cls-6" d="m118.94,43.83v28.81h-8.99l-10.83-14.4v14.4h-8.99v-28.81h8.99l10.83,14.4v-14.4h8.99Z"/><path class="cls-6" d="m167.6,58.24c0,8.48-5.92,14.4-14.4,14.4h-15.07v-28.81h15.07c8.48,0,14.4,5.92,14.4,14.4Zm-9.02,0c0-3.17-2.21-5.41-5.39-5.41h-6.08v10.83h6.08c3.17,0,5.39-2.24,5.39-5.41Z"/><path class="cls-6" d="m189.23,68.21h-9.39l-1.52,4.43h-9.79l11.1-28.81h9.9l11.02,28.81h-9.79l-1.52-4.43Zm-1.81-5.33l-2.85-8.32-2.88,8.32h5.73Z"/><path class="cls-6" d="m211.12,52.82v2.72h12.62v5.39h-12.62v2.72h19.82v8.99h-28.81v-28.81h28.81v8.99h-19.82Z"/><path class="cls-6" d="m262.93,63.65v8.99h-28.81v-28.81h8.99v19.82h19.82Z"/></g></svg>