<?xml version="1.0" encoding="UTF-8"?><svg id="Layer_1" xmlns="http://www.w3.org/2000/svg" viewBox="0 0 400 150"><defs><style>.cls-1{fill:#009444;}.cls-2{fill:#d7df23;}.cls-3{fill:#8dc63f;}.cls-4{fill:#231f20;font-family:HWTKonop-12Line, 'HWT Konop';font-size:32px;}.cls-5{fill:#fff200;}.cls-6{fill:#006838;}</style></defs><polygon class="cls-5" points="114.55 50.6 120.59 94.83 85.3 122.17 43.98 105.27 37.95 61.04 73.23 33.71 114.55 50.6"/><polygon class="cls-2" points="193.03 67.17 166.94 103.38 122.52 98.9 104.2 58.19 130.3 21.97 174.71 26.46 193.03 67.17"/><polygon class="cls-3" points="230.71 124.22 187.63 135.9 155.97 104.42 167.4 61.27 210.48 49.59 242.14 81.06 230.71 124.22"/><polygon class="cls-6" points="333.91 104.89 307.82 141.11 263.41 136.62 245.09 95.92 271.18 59.7 315.59 64.19 333.91 104.89"/><polygon class="cls-1" points="289.5 69.81 254.21 97.15 212.89 80.25 206.86 36.02 242.15 8.68 283.47 25.58 289.5 69.81"/><text class="cls-4" transform="translate(44.03 70.56)"><tspan x="0" y="0">De keuken </tspan><tspan x="0" y="38.4">van dael</tspan></text></svg>